<svg xmlns="http://www.w3.org/2000/svg" xmlns:xlink="http://www.w3.org/1999/xlink" width="500" zoomAndPan="magnify" viewBox="0 0 375 374.999991" height="500" preserveAspectRatio="xMidYMid meet" version="1.2"><g id="0ef1420687"><path style=" stroke:none;fill-rule:nonzero;fill:#1b1b1b;fill-opacity:1;" d="M 375 187.5 C 375 291.105469 291.105469 375 187.5 375 C 83.894531 375 0 291.105469 0 187.5 C 0 83.894531 83.894531 0 187.5 0 C 291.105469 0 375 83.894531 375 187.5 Z M 375 187.5 "/><path style=" stroke:none;fill-rule:nonzero;fill:#fffafa;fill-opacity:1;" d="M 302.328125 187.910156 C 302.328125 198.3125 293.839844 206.660156 283.578125 206.660156 L 283.441406 206.660156 L 206.25 206.386719 L 205.976562 283.578125 C 205.976562 293.976562 197.492188 302.328125 187.226562 302.328125 L 187.089844 302.328125 C 176.6875 302.328125 168.339844 293.839844 168.339844 283.441406 L 168.613281 206.25 L 91.421875 205.976562 C 81.023438 205.976562 72.671875 197.492188 72.671875 187.089844 C 72.671875 176.6875 81.160156 168.339844 91.421875 168.339844 L 91.558594 168.339844 L 168.75 168.613281 L 169.023438 91.421875 C 169.023438 81.023438 177.507812 72.671875 187.773438 72.671875 L 187.910156 72.671875 C 198.3125 72.671875 206.660156 81.160156 206.660156 91.558594 L 206.386719 168.75 L 283.578125 169.023438 C 293.976562 169.160156 302.328125 177.507812 302.328125 187.910156 Z M 302.328125 187.910156 "/></g></svg>