<svg xmlns="http://www.w3.org/2000/svg" xmlns:xlink="http://www.w3.org/1999/xlink" width="500" zoomAndPan="magnify" viewBox="0 0 375 374.999991" height="500" preserveAspectRatio="xMidYMid meet" version="1.2"><g id="45dbe51d42"><path style=" stroke:none;fill-rule:nonzero;fill:#1b1b1b;fill-opacity:1;" d="M 375.007812 187.503906 C 375.007812 190.570312 374.929688 193.640625 374.78125 196.703125 C 374.628906 199.769531 374.40625 202.828125 374.105469 205.882812 C 373.804688 208.9375 373.425781 211.980469 372.976562 215.015625 C 372.527344 218.050781 372.003906 221.074219 371.402344 224.082031 C 370.804688 227.09375 370.132812 230.085938 369.386719 233.0625 C 368.640625 236.039062 367.824219 238.996094 366.933594 241.933594 C 366.042969 244.867188 365.078125 247.78125 364.046875 250.671875 C 363.011719 253.558594 361.90625 256.421875 360.734375 259.257812 C 359.558594 262.09375 358.316406 264.898438 357.003906 267.671875 C 355.691406 270.445312 354.3125 273.183594 352.867188 275.890625 C 351.417969 278.597656 349.90625 281.265625 348.332031 283.898438 C 346.753906 286.53125 345.113281 289.121094 343.40625 291.675781 C 341.703125 294.226562 339.933594 296.734375 338.105469 299.199219 C 336.277344 301.664062 334.390625 304.082031 332.445312 306.453125 C 330.5 308.824219 328.496094 311.148438 326.433594 313.421875 C 324.375 315.695312 322.257812 317.917969 320.089844 320.089844 C 317.917969 322.257812 315.695312 324.375 313.421875 326.433594 C 311.148438 328.496094 308.824219 330.5 306.453125 332.445312 C 304.082031 334.390625 301.664062 336.277344 299.199219 338.105469 C 296.734375 339.933594 294.226562 341.703125 291.675781 343.40625 C 289.121094 345.109375 286.53125 346.753906 283.898438 348.332031 C 281.265625 349.90625 278.597656 351.417969 275.890625 352.867188 C 273.183594 354.3125 270.445312 355.691406 267.671875 357.003906 C 264.898438 358.316406 262.09375 359.558594 259.257812 360.734375 C 256.421875 361.90625 253.558594 363.011719 250.671875 364.046875 C 247.78125 365.078125 244.867188 366.042969 241.933594 366.933594 C 238.996094 367.824219 236.039062 368.640625 233.0625 369.386719 C 230.085938 370.132812 227.09375 370.804688 224.082031 371.402344 C 221.074219 372.003906 218.050781 372.527344 215.015625 372.976562 C 211.980469 373.425781 208.9375 373.804688 205.882812 374.105469 C 202.828125 374.40625 199.769531 374.628906 196.703125 374.78125 C 193.640625 374.929688 190.570312 375.007812 187.503906 375.007812 C 184.433594 375.007812 181.367188 374.929688 178.304688 374.78125 C 175.238281 374.628906 172.179688 374.40625 169.125 374.105469 C 166.070312 373.804688 163.027344 373.425781 159.992188 372.976562 C 156.957031 372.527344 153.933594 372.003906 150.921875 371.402344 C 147.914062 370.804688 144.921875 370.132812 141.945312 369.386719 C 138.96875 368.640625 136.011719 367.824219 133.074219 366.933594 C 130.136719 366.042969 127.222656 365.078125 124.335938 364.046875 C 121.445312 363.011719 118.582031 361.90625 115.75 360.734375 C 112.914062 359.558594 110.109375 358.316406 107.335938 357.003906 C 104.5625 355.691406 101.820312 354.3125 99.113281 352.867188 C 96.410156 351.417969 93.738281 349.90625 91.105469 348.332031 C 88.476562 346.753906 85.882812 345.109375 83.332031 343.40625 C 80.78125 341.703125 78.273438 339.933594 75.808594 338.105469 C 73.34375 336.277344 70.925781 334.390625 68.550781 332.445312 C 66.179688 330.5 63.859375 328.496094 61.582031 326.433594 C 59.308594 324.375 57.089844 322.257812 54.917969 320.089844 C 52.75 317.917969 50.632812 315.695312 48.574219 313.421875 C 46.511719 311.148438 44.507812 308.824219 42.5625 306.453125 C 40.613281 304.082031 38.726562 301.664062 36.898438 299.199219 C 35.070312 296.734375 33.304688 294.226562 31.601562 291.675781 C 29.894531 289.121094 28.253906 286.53125 26.675781 283.898438 C 25.097656 281.265625 23.585938 278.597656 22.140625 275.890625 C 20.695312 273.183594 19.3125 270.445312 18.003906 267.671875 C 16.691406 264.898438 15.445312 262.09375 14.273438 259.257812 C 13.097656 256.421875 11.996094 253.558594 10.960938 250.671875 C 9.925781 247.78125 8.964844 244.867188 8.074219 241.933594 C 7.183594 238.996094 6.363281 236.039062 5.621094 233.0625 C 4.875 230.085938 4.203125 227.09375 3.601562 224.082031 C 3.003906 221.074219 2.480469 218.050781 2.03125 215.015625 C 1.578125 211.980469 1.203125 208.9375 0.902344 205.882812 C 0.601562 202.828125 0.375 199.769531 0.226562 196.703125 C 0.0742188 193.640625 0 190.570312 0 187.503906 C 0 184.433594 0.0742188 181.367188 0.226562 178.304688 C 0.375 175.238281 0.601562 172.179688 0.902344 169.125 C 1.203125 166.070312 1.578125 163.027344 2.03125 159.992188 C 2.480469 156.957031 3.003906 153.933594 3.601562 150.921875 C 4.203125 147.914062 4.875 144.921875 5.621094 141.945312 C 6.363281 138.96875 7.183594 136.011719 8.074219 133.074219 C 8.964844 130.136719 9.925781 127.222656 10.960938 124.335938 C 11.996094 121.445312 13.097656 118.582031 14.273438 115.75 C 15.445312 112.914062 16.691406 110.109375 18.003906 107.335938 C 19.3125 104.5625 20.695312 101.820312 22.140625 99.113281 C 23.585938 96.410156 25.097656 93.738281 26.675781 91.105469 C 28.253906 88.476562 29.894531 85.882812 31.601562 83.332031 C 33.304688 80.78125 35.070312 78.273438 36.898438 75.808594 C 38.726562 73.34375 40.613281 70.925781 42.5625 68.550781 C 44.507812 66.179688 46.511719 63.859375 48.574219 61.582031 C 50.632812 59.308594 52.75 57.089844 54.917969 54.917969 C 57.089844 52.75 59.308594 50.632812 61.582031 48.574219 C 63.859375 46.511719 66.179688 44.507812 68.550781 42.5625 C 70.925781 40.613281 73.34375 38.726562 75.808594 36.898438 C 78.273438 35.070312 80.78125 33.304688 83.332031 31.601562 C 85.882812 29.894531 88.476562 28.253906 91.105469 26.675781 C 93.738281 25.097656 96.410156 23.585938 99.113281 22.140625 C 101.820312 20.695312 104.5625 19.3125 107.335938 18.003906 C 110.109375 16.691406 112.914062 15.445312 115.75 14.273438 C 118.582031 13.097656 121.445312 11.996094 124.335938 10.960938 C 127.222656 9.925781 130.136719 8.964844 133.074219 8.074219 C 136.011719 7.183594 138.96875 6.363281 141.945312 5.621094 C 144.921875 4.875 147.914062 4.203125 150.921875 3.601562 C 153.933594 3.003906 156.957031 2.480469 159.992188 2.03125 C 163.027344 1.578125 166.070312 1.203125 169.125 0.902344 C 172.179688 0.601562 175.238281 0.375 178.304688 0.226562 C 181.367188 0.0742188 184.433594 0 187.503906 0 C 190.570312 0 193.640625 0.0742188 196.703125 0.226562 C 199.769531 0.375 202.828125 0.601562 205.882812 0.902344 C 208.9375 1.203125 211.980469 1.578125 215.015625 2.03125 C 218.050781 2.480469 221.074219 3.003906 224.082031 3.601562 C 227.09375 4.203125 230.085938 4.875 233.0625 5.621094 C 236.039062 6.363281 238.996094 7.183594 241.933594 8.074219 C 244.867188 8.964844 247.78125 9.925781 250.671875 10.960938 C 253.558594 11.996094 256.421875 13.097656 259.257812 14.273438 C 262.09375 15.445312 264.898438 16.691406 267.671875 18.003906 C 270.445312 19.3125 273.183594 20.695312 275.890625 22.140625 C 278.597656 23.585938 281.265625 25.097656 283.898438 26.675781 C 286.53125 28.253906 289.121094 29.894531 291.675781 31.601562 C 294.226562 33.304688 296.734375 35.070312 299.199219 36.898438 C 301.664062 38.726562 304.082031 40.613281 306.453125 42.5625 C 308.824219 44.507812 311.148438 46.511719 313.421875 48.574219 C 315.695312 50.632812 317.917969 52.75 320.089844 54.917969 C 322.257812 57.089844 324.375 59.308594 326.433594 61.582031 C 328.496094 63.859375 330.5 66.179688 332.445312 68.550781 C 334.390625 70.925781 336.277344 73.34375 338.105469 75.808594 C 339.933594 78.273438 341.703125 80.78125 343.40625 83.332031 C 345.113281 85.882812 346.753906 88.476562 348.332031 91.105469 C 349.90625 93.738281 351.417969 96.410156 352.867188 99.113281 C 354.3125 101.820312 355.691406 104.5625 357.003906 107.335938 C 358.316406 110.109375 359.558594 112.914062 360.734375 115.75 C 361.90625 118.582031 363.011719 121.445312 364.046875 124.335938 C 365.078125 127.222656 366.042969 130.136719 366.933594 133.074219 C 367.824219 136.011719 368.640625 138.96875 369.386719 141.945312 C 370.132812 144.921875 370.804688 147.914062 371.402344 150.921875 C 372.003906 153.933594 372.527344 156.957031 372.976562 159.992188 C 373.425781 163.027344 373.804688 166.070312 374.105469 169.125 C 374.40625 172.179688 374.628906 175.238281 374.78125 178.304688 C 374.929688 181.367188 375.007812 184.433594 375.007812 187.503906 Z M 375.007812 187.503906 "/><path style=" stroke:none;fill-rule:evenodd;fill:#fffafa;fill-opacity:1;" d="M 88.695312 168.652344 C 88.695312 168.652344 66.101562 169.085938 66.972656 189.507812 C 67.839844 209.929688 88.097656 207.691406 88.097656 207.691406 L 297.371094 197.3125 C 297.371094 197.3125 311.503906 196.894531 312.308594 177.558594 C 313.113281 158.222656 290.085938 158.660156 290.085938 158.660156 Z M 88.695312 168.652344 "/></g></svg>